<svg width="134" height="55" viewBox="0 0 134 55" fill="none" xmlns="http://www.w3.org/2000/svg">
<path d="M11.3737 11.0821L21.4371 11.085L28.0153 19.2744L34.5704 11.0857L44.625 11.0837L28.0656 32.6268L11.3737 11.0821Z" fill="#9C171E"/>
<path d="M11.3649 25.6842L11.3649 11.0834L28.0556 32.6277L44.6163 11.0847V25.6842L28.0543 46.5504L11.3649 25.6842Z" fill="#FEA110"/>
<path d="M64.7472 17.1818V21.7273H51.608V17.1818H64.7472ZM54.5909 11.9545H60.642V32.2955C60.642 32.8542 60.7273 33.2898 60.8977 33.6023C61.0682 33.9053 61.3049 34.1184 61.608 34.2415C61.9205 34.3646 62.2803 34.4261 62.6875 34.4261C62.9716 34.4261 63.2557 34.4025 63.5398 34.3551C63.8239 34.2983 64.0417 34.2557 64.1932 34.2273L65.1449 38.7301C64.8419 38.8248 64.4157 38.9337 63.8665 39.0568C63.3172 39.1894 62.6496 39.2699 61.8636 39.2983C60.4053 39.3551 59.1269 39.161 58.0284 38.7159C56.9394 38.2708 56.0919 37.5795 55.4858 36.642C54.8797 35.7045 54.5814 34.5208 54.5909 33.0909V11.9545ZM68.6889 39V17.1818H74.7401V39H68.6889ZM71.7287 14.3693C70.8291 14.3693 70.0573 14.071 69.4134 13.4744C68.7789 12.8684 68.4616 12.1439 68.4616 11.3011C68.4616 10.4678 68.7789 9.75284 69.4134 9.15625C70.0573 8.55019 70.8291 8.24716 71.7287 8.24716C72.6283 8.24716 73.3954 8.55019 74.0298 9.15625C74.6738 9.75284 74.9957 10.4678 74.9957 11.3011C74.9957 12.1439 74.6738 12.8684 74.0298 13.4744C73.3954 14.071 72.6283 14.3693 71.7287 14.3693ZM99.9283 17.1818L92.3004 39H85.4822L77.8544 17.1818H84.2464L88.7777 32.7926H89.005L93.522 17.1818H99.9283ZM112.265 39.4261C110.021 39.4261 108.089 38.9716 106.469 38.0625C104.86 37.1439 103.619 35.8466 102.748 34.1705C101.877 32.4848 101.441 30.4915 101.441 28.1903C101.441 25.946 101.877 23.9763 102.748 22.2812C103.619 20.5862 104.845 19.2652 106.427 18.3182C108.018 17.3712 109.883 16.8977 112.023 16.8977C113.463 16.8977 114.803 17.1297 116.043 17.5938C117.293 18.0483 118.382 18.7348 119.31 19.6534C120.248 20.572 120.977 21.7273 121.498 23.1193C122.019 24.5019 122.279 26.1212 122.279 27.9773V29.6392H103.856V25.8892H116.583C116.583 25.018 116.394 24.2462 116.015 23.5739C115.636 22.9015 115.111 22.3759 114.438 21.9972C113.775 21.6089 113.004 21.4148 112.123 21.4148C111.204 21.4148 110.39 21.6278 109.68 22.054C108.979 22.4706 108.43 23.0341 108.032 23.7443C107.634 24.4451 107.431 25.2263 107.421 26.0881V29.6534C107.421 30.733 107.62 31.6657 108.018 32.4517C108.425 33.2377 108.998 33.8438 109.737 34.2699C110.475 34.696 111.351 34.9091 112.364 34.9091C113.037 34.9091 113.652 34.8144 114.211 34.625C114.77 34.4356 115.248 34.1515 115.646 33.7727C116.043 33.3939 116.346 32.9299 116.555 32.3807L122.151 32.75C121.867 34.0947 121.285 35.2689 120.404 36.2727C119.533 37.267 118.406 38.0436 117.023 38.6023C115.65 39.1515 114.064 39.4261 112.265 39.4261Z" fill="white"/>
</svg>
