<svg width="9" height="30" viewBox="0 0 9 30" fill="none" xmlns="http://www.w3.org/2000/svg">
<path d="M4.5 9C5.60457 9 6.5 8.10457 6.5 7C6.5 5.89543 5.60457 5 4.5 5C3.39543 5 2.5 5.89543 2.5 7C2.5 8.10457 3.39543 9 4.5 9Z" fill="black"/>
<path d="M4.5 17C5.60457 17 6.5 16.1046 6.5 15C6.5 13.8954 5.60457 13 4.5 13C3.39543 13 2.5 13.8954 2.5 15C2.5 16.1046 3.39543 17 4.5 17Z" fill="black"/>
<path d="M4.5 25C5.60457 25 6.5 24.1046 6.5 23C6.5 21.8954 5.60457 21 4.5 21C3.39543 21 2.5 21.8954 2.5 23C2.5 24.1046 3.39543 25 4.5 25Z" fill="black"/>
</svg>
